<svg xmlns="http://www.w3.org/2000/svg" viewBox="0 0 39.89 23.6"><defs><style>.cls-1{fill:#999;}</style></defs><g id="Layer_2" data-name="Layer 2"><g id="Layer_1-2" data-name="Layer 1"><path class="cls-1" d="M39.5,16.54,34,12.19a.59.59,0,0,1,0-1L39.5,6.88a.82.82,0,0,0,.32-1,.85.85,0,0,0-1-.23L32.21,8.28a.58.58,0,0,1-.83-.48l-1-7A.72.72,0,1,0,29,.78l-1,7a.59.59,0,0,1-.84.48L20.67,5.71a2.25,2.25,0,0,0-1.45,0L12.75,8.28a.59.59,0,0,1-.84-.48l-1-7A.84.84,0,0,0,10.21,0,.84.84,0,0,0,9.5.78l-1,7a.59.59,0,0,1-.84.48L1.1,5.66a.85.85,0,0,0-1,.23.83.83,0,0,0,.31,1l5.53,4.35a.58.58,0,0,1,0,1L.38,16.54A.9.9,0,0,0,.07,17.6a.83.83,0,0,0,1,.28l6.51-2.62a.58.58,0,0,1,.83.49l.94,7.08a.89.89,0,0,0,.83.77.89.89,0,0,0,.83-.77L12,15.75a.58.58,0,0,1,.83-.49l6.41,2.57a2.25,2.25,0,0,0,1.45,0l6.41-2.57a.58.58,0,0,1,.83.49l.94,7.08a.89.89,0,0,0,.83.77.88.88,0,0,0,.82-.77l.94-7.08a.58.58,0,0,1,.83-.49l6.52,2.62a.83.83,0,0,0,1-.28.92.92,0,0,0-.32-1.06Zm-14.12-4.4-4.82,3.71a1.07,1.07,0,0,1-1.23,0L14.5,12.14a.58.58,0,0,1,0-1l4.83-3.8a1,1,0,0,1,1.22,0l4.84,3.8a.58.58,0,0,1,0,1Z"/></g></g></svg>