<svg xmlns="http://www.w3.org/2000/svg" viewBox="0 0 37.98 24.6"><defs><style>.cls-1{fill:#999;stroke:#999;stroke-linejoin:bevel;}</style></defs><g id="Layer_2" data-name="Layer 2"><g id="Layer_1-2" data-name="Layer 1"><path id="Path_246" data-name="Path 246" class="cls-1" d="M37.47,1.16a.56.56,0,0,0-.08-.2c0-.07,0-.14-.06-.2s0,0,0,0a.71.71,0,0,0-.22-.13.65.65,0,0,0-.23-.09s0,0,0,0H1.16s0,0,0,0A.5.5,0,0,0,.89.61.67.67,0,0,0,.68.74s0,0,0,0S.61.9.59,1s-.09.12-.09.2V23.44c0,.08.06.13.09.2a.72.72,0,0,0,.05.21l0,0a.63.63,0,0,0,.48.23H36.81a.65.65,0,0,0,.49-.23s0,0,0,0,0-.14.06-.21.09-.12.09-.2V1.16ZM1.83,2.51,14.44,12.3,1.83,22.08Zm20.22,9.26h0L19.15,14l-.16.13-.14-.1-2.91-2.26h0L3.1,1.83H34.87Zm-6.52,1.37,3,2.37a.9.9,0,0,0,.23.08l.13,0,0,0,.05,0,.12,0a.75.75,0,0,0,.24-.08l3.05-2.37,12.42,9.64H3.1Zm8-.84L36.15,2.52V22.09Z"/></g></g></svg>