<svg xmlns="http://www.w3.org/2000/svg" viewBox="0 0 23.65 23.65"><defs><style>.cls-1{fill:#999;fill-rule:evenodd;}</style></defs><g id="Layer_2" data-name="Layer 2"><g id="Layer_1-2" data-name="Layer 1"><path id="Path_249" data-name="Path 249" class="cls-1" d="M11.82,2.12a37.32,37.32,0,0,1,4.73.14,6,6,0,0,1,2.22.39A4.56,4.56,0,0,1,21,4.88a6.07,6.07,0,0,1,.4,2.23c0,1.18.13,1.57.13,4.72a37.21,37.21,0,0,1-.13,4.72,6.07,6.07,0,0,1-.4,2.23A4.56,4.56,0,0,1,18.77,21a6,6,0,0,1-2.22.39c-1.18,0-1.58.13-4.73.13A35.44,35.44,0,0,1,7.1,21.4,6.1,6.1,0,0,1,4.87,21a4.58,4.58,0,0,1-2.22-2.23,6.07,6.07,0,0,1-.4-2.23c0-1.18-.13-1.58-.13-4.72a37.16,37.16,0,0,1,.13-4.72,6.07,6.07,0,0,1,.4-2.23,4.6,4.6,0,0,1,.91-1.31,2.23,2.23,0,0,1,1.31-.92A6.1,6.1,0,0,1,7.1,2.26a37.22,37.22,0,0,1,4.72-.14m0-2.1A39.35,39.35,0,0,0,7,.16,7.89,7.89,0,0,0,4.09.68,5.12,5.12,0,0,0,2,2,5.18,5.18,0,0,0,.68,4.09,6,6,0,0,0,.16,7,39.35,39.35,0,0,0,0,11.82a39.45,39.45,0,0,0,.14,4.86,7.89,7.89,0,0,0,.52,2.88A5.12,5.12,0,0,0,2,21.66,5.18,5.18,0,0,0,4.09,23,8.13,8.13,0,0,0,7,23.5a39.12,39.12,0,0,0,4.84.12,37.57,37.57,0,0,0,4.86-.13A7.89,7.89,0,0,0,19.56,23,5.5,5.5,0,0,0,23,19.56a8.13,8.13,0,0,0,.53-2.89c0-1.31.13-1.7.13-4.85A41.29,41.29,0,0,0,23.5,7,8.12,8.12,0,0,0,23,4.09,5.12,5.12,0,0,0,21.66,2,5,5,0,0,0,19.56.67,8.1,8.1,0,0,0,16.68.16,39.45,39.45,0,0,0,11.82,0m0,5.77a6,6,0,0,0-6,5.84v.19a6,6,0,1,0,6-6h0m0,10A3.86,3.86,0,0,1,7.89,12v-.15a3.86,3.86,0,0,1,3.8-3.93h.13a3.87,3.87,0,0,1,3.94,3.79v.14A3.87,3.87,0,0,1,12,15.76h-.15m6.3-11.67a1.44,1.44,0,1,0,1.45,1.44h0a1.46,1.46,0,0,0-1.45-1.44"/></g></g></svg>