<svg xmlns="http://www.w3.org/2000/svg" xmlns:xlink="http://www.w3.org/1999/xlink" viewBox="0 0 23.27 23.29"><defs><style>.cls-1{fill:none;}.cls-2{fill:#999;}.cls-3{clip-path:url(#clip-path);}</style><clipPath id="clip-path" transform="translate(0 0)"><rect class="cls-1" width="23.27" height="23.28"/></clipPath></defs><g id="Layer_2" data-name="Layer 2"><g id="Layer_1-2" data-name="Layer 1"><g id="Group_14" data-name="Group 14"><rect id="Rectangle_3" data-name="Rectangle 3" class="cls-2" x="0.46" y="7.76" width="4.8" height="15.52"/><g id="Group_13" data-name="Group 13"><g class="cls-3"><g id="Group_12" data-name="Group 12"><path id="Path_250" data-name="Path 250" class="cls-2" d="M2.84,5.73A2.87,2.87,0,1,0,0,2.84v0A2.86,2.86,0,0,0,2.84,5.73" transform="translate(0 0)"/><path id="Path_251" data-name="Path 251" class="cls-2" d="M13,15.13c0-2.18,1-3.48,2.92-3.48s2.62,1.25,2.62,3.48v8.15h4.78V13.45c0-4.15-2.36-6.16-5.65-6.16A5.38,5.38,0,0,0,13,9.85V7.76H8.34V23.28H13Z" transform="translate(0 0)"/></g></g></g></g></g></g></svg>