<svg xmlns="http://www.w3.org/2000/svg" viewBox="0 0 26.56 21.55"><defs><style>.cls-1{fill:#999;fill-rule:evenodd;}</style></defs><g id="Layer_2" data-name="Layer 2"><g id="Layer_1-2" data-name="Layer 1"><path id="Path_248" data-name="Path 248" class="cls-1" d="M8.41,21.54A15.35,15.35,0,0,0,23.91,6.05V5.31a12,12,0,0,0,2.65-2.8,11.94,11.94,0,0,1-3.1.88A5.73,5.73,0,0,0,25.82.44a13.51,13.51,0,0,1-3.39,1.33,5.26,5.26,0,0,0-4-1.77A5.54,5.54,0,0,0,13,5.46a2.78,2.78,0,0,0,.14,1.18A15.25,15.25,0,0,1,1.92.89a5.61,5.61,0,0,0-.74,2.8A5.84,5.84,0,0,0,3.54,8.26,5,5,0,0,1,1,7.53H1a5.39,5.39,0,0,0,4.43,5.31A4.61,4.61,0,0,1,4,13a2.58,2.58,0,0,1-1-.15,5.59,5.59,0,0,0,5.16,3.83A11.06,11.06,0,0,1,1.33,19,4,4,0,0,1,0,18.89a13.93,13.93,0,0,0,8.41,2.65"/></g></g></svg>