<svg xmlns="http://www.w3.org/2000/svg" viewBox="0 0 190.82 191.73"><defs><style>.cls-1{fill:#231f20;}.cls-2{fill:none;stroke:#231f20;stroke-miterlimit:10;}</style></defs><g id="Layer_2" data-name="Layer 2"><g id="Layer_1-2" data-name="Layer 1"><polygon class="cls-1" points="26.95 0 25.94 24.5 7.86 7.94 24.49 25.92 0 26.95 24.51 27.97 7.92 46.04 25.94 29.41 26.95 53.91 27.97 29.41 46.01 46.03 29.43 27.97 53.91 26.95 29.41 25.94 46.01 7.89 27.97 24.5 26.95 0"/><path class="cls-1" d="M64.6,62.18l7.55,7.55v45.66H99v6.35H64.6Z"/><path class="cls-1" d="M95.23,126.75A39.6,39.6,0,0,1,97,115a31.07,31.07,0,0,1,5.12-10,25,25,0,0,1,8.42-6.91,25.38,25.38,0,0,1,11.71-2.58,32.46,32.46,0,0,1,7.91.95,26.46,26.46,0,0,1,7,2.9,26.09,26.09,0,0,1,5.92,4.89,25.63,25.63,0,0,1,4.41,6.9c.42,1,.79,1.92,1.11,2.9a14.11,14.11,0,0,1,.63,2.9l-7.3,7.31a38.76,38.76,0,0,0-1.63-8.3,20.54,20.54,0,0,0-3.53-6.71,16.34,16.34,0,0,0-5.84-4.53,20.36,20.36,0,0,0-8.7-1.67q-9.12,0-14.29,6.12t-5.16,17.31q0,11.43,5.36,17t14.49,5.6a20.57,20.57,0,0,0,6.79-1,15.57,15.57,0,0,0,8.22-6.47,39.65,39.65,0,0,0,2.38-4.37l6.2,6.19a47.63,47.63,0,0,1-3.26,4.73,20.78,20.78,0,0,1-4.57,4.25,23.09,23.09,0,0,1-6.55,3.06,32.4,32.4,0,0,1-9.21,1.15,27.66,27.66,0,0,1-11.75-2.35A24.94,24.94,0,0,1,102.3,148,27.41,27.41,0,0,1,97,138.42,37.42,37.42,0,0,1,95.23,126.75Z"/><circle class="cls-2" cx="108.41" cy="103.31" r="77.3"/><circle class="cls-1" cx="174.78" cy="62.18" r="8.33"/><circle class="cls-1" cx="185.41" cy="106.37" r="5.41"/><circle class="cls-2" cx="97.99" cy="113.87" r="77.34"/><circle class="cls-1" cx="26.95" cy="146.69" r="8.59"/><polygon class="cls-1" points="174.78 160.6 174.29 172.34 165.62 164.4 173.59 173.03 161.85 173.52 173.61 174.01 165.65 182.67 174.29 174.7 174.78 186.44 175.26 174.7 183.91 182.67 175.96 174.01 187.7 173.52 175.95 173.03 183.91 164.38 175.26 172.34 174.78 160.6"/></g></g></svg>