<svg xmlns="http://www.w3.org/2000/svg" viewBox="0 0 201.98 202.26"><defs><style>.cls-1{fill:none;stroke:#231f20;stroke-miterlimit:10;}.cls-2{fill:#231f20;}</style></defs><g id="Layer_2" data-name="Layer 2"><g id="Layer_3" data-name="Layer 3"><circle class="cls-1" cx="113.63" cy="106.49" r="82.7"/><circle class="cls-2" cx="182.52" cy="65.01" r="8.91"/><circle class="cls-2" cx="193.9" cy="112.28" r="5.79"/><circle class="cls-1" cx="101.44" cy="118.07" r="83.68"/><circle class="cls-2" cx="24.37" cy="155.42" r="9.19"/><polygon points="26.16 0 27.16 23.75 44.66 7.66 28.58 25.16 52.33 26.16 28.58 27.16 44.66 44.66 27.16 28.58 26.16 52.33 25.16 28.58 7.66 44.66 23.75 27.16 0 26.16 23.75 25.16 7.66 7.66 25.16 23.75 26.16 0"/><polygon points="185.13 168.29 185.78 183.58 197.04 173.22 186.69 184.49 201.98 185.13 186.69 185.78 197.04 197.04 185.78 186.69 185.13 201.98 184.49 186.69 173.22 197.04 183.58 185.78 168.29 185.13 183.58 184.49 173.22 173.22 184.49 183.58 185.13 168.29"/></g></g></svg>