<svg xmlns="http://www.w3.org/2000/svg" viewBox="0 0 95.61 106.76"><defs><style>.cls-1{fill:#231f20;}</style></defs><g id="Layer_2" data-name="Layer 2"><g id="Layer_1-2" data-name="Layer 1"><path class="cls-1" d="M0,0,8.52,8.52V60.11H38.85v7.17H0Z"/><path class="cls-1" d="M34.61,72.94a44.52,44.52,0,0,1,2-13.28A34.74,34.74,0,0,1,42.37,48.4a28.23,28.23,0,0,1,9.5-7.8,28.73,28.73,0,0,1,13.24-2.92A36.15,36.15,0,0,1,74,38.76a29,29,0,0,1,14.63,8.79,29,29,0,0,1,5,7.81c.47,1.07.89,2.17,1.25,3.27a16.52,16.52,0,0,1,.72,3.28l-8.25,8.25a44,44,0,0,0-1.84-9.38,23.25,23.25,0,0,0-4-7.58,18.44,18.44,0,0,0-6.59-5.11,22.88,22.88,0,0,0-9.82-1.88q-10.32,0-16.15,6.9T43.13,72.67q0,12.92,6,19.24t16.38,6.33a23.16,23.16,0,0,0,7.67-1.12,17.58,17.58,0,0,0,9.28-7.31,44.08,44.08,0,0,0,2.69-4.94l7,7a54.29,54.29,0,0,1-3.68,5.34,23.39,23.39,0,0,1-5.16,4.8,26.25,26.25,0,0,1-7.4,3.45,36.2,36.2,0,0,1-10.4,1.3,31.32,31.32,0,0,1-13.28-2.65,28.12,28.12,0,0,1-9.69-7.22,31.1,31.1,0,0,1-6-10.76A42.45,42.45,0,0,1,34.61,72.94Z"/></g></g></svg>