<svg xmlns="http://www.w3.org/2000/svg" viewBox="0 0 201.98 202.26"><defs><style>.cls-1{fill:#231f20;}.cls-2{fill:none;stroke:#231f20;stroke-miterlimit:10;}</style></defs><g id="Layer_2" data-name="Layer 2"><g id="Layer_3" data-name="Layer 3"><path class="cls-1" d="M64.65,65l8.07,8.07v48.85h28.72v6.8H64.65Z"/><path class="cls-1" d="M97.42,134.08a42.41,42.41,0,0,1,1.87-12.57,33.13,33.13,0,0,1,5.48-10.66,26.62,26.62,0,0,1,9-7.39,27.12,27.12,0,0,1,12.53-2.76,34.37,34.37,0,0,1,8.45,1A27.46,27.46,0,0,1,148.61,110a27.14,27.14,0,0,1,4.71,7.39,30.86,30.86,0,0,1,1.19,3.1,15.57,15.57,0,0,1,.68,3.1l-7.81,7.82a42.09,42.09,0,0,0-1.74-8.88,22.15,22.15,0,0,0-3.78-7.18,17.51,17.51,0,0,0-6.25-4.84,21.7,21.7,0,0,0-9.3-1.78q-9.78,0-15.29,6.54t-5.53,18.52q0,12.24,5.74,18.22t15.5,6A22,22,0,0,0,134,157a16.54,16.54,0,0,0,8.79-6.92,42.71,42.71,0,0,0,2.55-4.68L152,152a50.91,50.91,0,0,1-3.49,5.06,22.22,22.22,0,0,1-4.88,4.54,24.71,24.71,0,0,1-7,3.27,34.49,34.49,0,0,1-9.86,1.23,29.75,29.75,0,0,1-12.57-2.5,26.73,26.73,0,0,1-9.18-6.84,29.47,29.47,0,0,1-5.65-10.2A40.13,40.13,0,0,1,97.42,134.08Z"/><circle class="cls-2" cx="113.63" cy="106.49" r="82.7"/><circle class="cls-1" cx="182.52" cy="65.01" r="8.91"/><circle class="cls-1" cx="193.9" cy="112.28" r="5.79"/><circle class="cls-2" cx="101.44" cy="118.07" r="83.68"/><circle class="cls-1" cx="24.37" cy="155.42" r="9.19"/><polygon points="26.16 0 27.16 23.75 44.66 7.66 28.58 25.16 52.33 26.16 28.58 27.16 44.66 44.66 27.16 28.58 26.16 52.33 25.16 28.58 7.66 44.66 23.75 27.16 0 26.16 23.75 25.16 7.66 7.66 25.16 23.75 26.16 0"/><polygon points="185.13 168.29 185.78 183.58 197.04 173.22 186.69 184.49 201.98 185.13 186.69 185.78 197.04 197.04 185.78 186.69 185.13 201.98 184.49 186.69 173.22 197.04 183.58 185.78 168.29 185.13 183.58 184.49 173.22 173.22 184.49 183.58 185.13 168.29"/></g></g></svg>