<svg xmlns="http://www.w3.org/2000/svg" viewBox="0 0 130.99 131.04"><defs><style>.cls-1{fill:#231f20;}.cls-2{fill:none;stroke:#231f20;stroke-miterlimit:10;}</style></defs><g id="Layer_2" data-name="Layer 2"><g id="Layer_3" data-name="Layer 3"><path class="cls-1" d="M41.83,42.06l5.22,5.22V78.89H65.63v4.39H41.83Z"/><path class="cls-1" d="M63,86.75a27.28,27.28,0,0,1,1.21-8.14,21.32,21.32,0,0,1,3.54-6.89,17.23,17.23,0,0,1,5.83-4.79,17.58,17.58,0,0,1,8.11-1.78,22.27,22.27,0,0,1,5.47.66,17.74,17.74,0,0,1,9,5.38,17.91,17.91,0,0,1,3,4.79,20.13,20.13,0,0,1,.77,2,10.67,10.67,0,0,1,.44,2L95.35,85a26.3,26.3,0,0,0-1.13-5.74,14.25,14.25,0,0,0-2.44-4.64,11.36,11.36,0,0,0-4-3.14,14.05,14.05,0,0,0-6-1.15c-4.22,0-7.51,1.41-9.9,4.23s-3.57,6.82-3.57,12S69.49,95.79,72,98.37s5.82,3.88,10,3.88a14.16,14.16,0,0,0,4.7-.69,10.76,10.76,0,0,0,5.69-4.48,27.82,27.82,0,0,0,1.65-3l4.29,4.29a31.43,31.43,0,0,1-2.26,3.27,14.2,14.2,0,0,1-3.16,2.94,15.82,15.82,0,0,1-4.53,2.11,22,22,0,0,1-6.38.8,19.21,19.21,0,0,1-8.13-1.62,17.21,17.21,0,0,1-5.94-4.43,18.81,18.81,0,0,1-3.65-6.59A25.74,25.74,0,0,1,63,86.75Z"/><circle class="cls-2" cx="73.52" cy="68.9" r="53.5"/><circle class="cls-1" cx="119.09" cy="41.06" r="5.77"/><circle class="cls-1" cx="127.24" cy="71.64" r="3.75"/><circle class="cls-2" cx="65.63" cy="76.39" r="54.14"/><circle class="cls-1" cx="16.77" cy="100.55" r="5.95"/><polygon points="16.93 0 17.57 15.36 28.9 4.96 18.49 16.28 33.85 16.93 18.49 17.57 28.9 28.9 17.57 18.49 16.93 33.85 16.28 18.49 4.96 28.9 15.36 17.57 0 16.93 15.36 16.28 4.96 4.96 16.28 15.36 16.93 0"/><polygon points="119.78 108.88 120.19 118.77 127.48 112.07 120.78 119.36 130.67 119.78 120.78 120.19 127.48 127.48 120.19 120.78 119.78 130.67 119.36 120.78 112.07 127.48 118.77 120.19 108.88 119.78 118.77 119.36 112.07 112.07 119.36 118.77 119.78 108.88"/></g></g></svg>