<svg xmlns="http://www.w3.org/2000/svg" viewBox="0 0 463.64 57.75"><defs><style>.cls-1{fill:#231f20;}</style></defs><g id="Layer_2" data-name="Layer 2"><g id="Layer_1-2" data-name="Layer 1"><path class="cls-1" d="M0,1.5H8.55v49h25v7.27H0Z"/><path class="cls-1" d="M78.15,1.5V8.77H49.58V25.2H75.15v7H49.58V50.48H78.15v7.27H41V1.5Z"/><path class="cls-1" d="M96.07,57.75H87.52V1.5h8.55Z"/><path class="cls-1" d="M123.9,1.5h9.22l20.33,56.25h-9l-6.38-17.48h-19.2l-6.3,17.48h-9Zm-2.55,31.88H135.6l-6.75-20.71h-.75Z"/><path class="cls-1" d="M176,29.48a34.69,34.69,0,0,1,.63-6.42,37.64,37.64,0,0,1,1.95-6.64,31.36,31.36,0,0,1,3.38-6.26A23.55,23.55,0,0,1,193.5,1.35,24.67,24.67,0,0,1,201.9,0a29.63,29.63,0,0,1,8.51,1.16,26.92,26.92,0,0,1,6.9,3.15A23.39,23.39,0,0,1,222.56,9a26.49,26.49,0,0,1,3.64,5.85,20.52,20.52,0,0,1,1.72,5.4l-7,6.75a21.61,21.61,0,0,0-1.05-6.49A17.41,17.41,0,0,0,210.6,9.94a19.56,19.56,0,0,0-8.7-1.77,16.18,16.18,0,0,0-8.22,1.95,16.08,16.08,0,0,0-5.36,5A21.38,21.38,0,0,0,185.4,22a30.14,30.14,0,0,0,0,14.62,18.47,18.47,0,0,0,3,6.56,15.83,15.83,0,0,0,5.47,4.69,17.7,17.7,0,0,0,8.4,1.8,18.81,18.81,0,0,0,5.81-.79,13.77,13.77,0,0,0,4.28-2.21,14.49,14.49,0,0,0,3.15-3.38A28.94,28.94,0,0,0,217.87,39l.45-.9,6.9,6.82-.22.31a28.52,28.52,0,0,1-3.75,5.21,22.33,22.33,0,0,1-4.8,3.94,22.06,22.06,0,0,1-6.19,2.51,33.73,33.73,0,0,1-8,.86,24.46,24.46,0,0,1-20.21-9.41,26.76,26.76,0,0,1-4.65-9.11A34.69,34.69,0,0,1,176,29.48Z"/><path class="cls-1" d="M250.12,1.5h9.23l20.32,56.25h-9L264.3,40.27H245.1l-6.3,17.48h-9Zm-2.55,31.88h14.25l-6.75-20.71h-.75Z"/><path class="cls-1" d="M285.3,1.5h20.85a27.15,27.15,0,0,1,6.67.79,16.5,16.5,0,0,1,5.55,2.47,12.46,12.46,0,0,1,3.83,4.35,13.74,13.74,0,0,1,1.42,6.49,21.66,21.66,0,0,1-.45,4.42,12,12,0,0,1-1.57,4,10.25,10.25,0,0,1-3,3.08A13.64,13.64,0,0,1,313.72,29v.75a12.67,12.67,0,0,1,1.8,1.2l3.08,2.25c1.3,1,2.72,2,4.27,3.23V57.75h-8.55V39.67c0-5.49-3-8.25-8.92-8.25H293.85V57.75H285.3Zm20.85,23a12,12,0,0,0,7.08-1.83q2.59-1.85,2.59-6.11t-2.7-5.78a13.2,13.2,0,0,0-7-1.65h-12.3V24.52Z"/><path class="cls-1" d="M375.07,1.5V8.4H355.42V57.75H347V8.4H327.37V1.5Z"/><path class="cls-1" d="M417.82,1.5V8.77H389.24V25.2h25.58v7H389.24V50.48h28.58v7.27H380.69V1.5Z"/><path class="cls-1" d="M425.32,1.5h20.85a27.15,27.15,0,0,1,6.67.79,16.5,16.5,0,0,1,5.55,2.47,12.46,12.46,0,0,1,3.83,4.35,13.62,13.62,0,0,1,1.42,6.49,21.66,21.66,0,0,1-.45,4.42,12,12,0,0,1-1.57,4,10.13,10.13,0,0,1-3,3.08A13.56,13.56,0,0,1,453.74,29v.75a12.67,12.67,0,0,1,1.8,1.2l3.08,2.25c1.3,1,2.72,2,4.27,3.23V57.75h-8.55V39.67c0-5.49-3-8.25-8.92-8.25H433.87V57.75h-8.55Zm20.85,23a12.1,12.1,0,0,0,7.09-1.83q2.58-1.85,2.58-6.11t-2.7-5.78a13.2,13.2,0,0,0-7-1.65h-12.3V24.52Z"/></g></g></svg>